<svg xmlns="http://www.w3.org/2000/svg" xmlns:xlink="http://www.w3.org/1999/xlink" width="500" height="500" viewBox="0 0 500 500"><defs><svg viewBox="0 0 36 36" xmlns="http://www.w3.org/2000/svg" width="36" height="36" id="a"><path d="M35.885 11.833c0-5.45-4.418-9.868-9.867-9.868-3.308 0-6.227 1.633-8.018 4.129-1.791-2.496-4.71-4.129-8.017-4.129-5.45 0-9.868 4.417-9.868 9.868 0 .772.098 1.52.266 2.241C1.751 22.587 11.216 31.568 18 34.034c6.783-2.466 16.249-11.447 17.617-19.959.17-.721.268-1.469.268-2.242z" fill="#E6E7E8"/></svg><svg viewBox="0 0 36 36" xmlns="http://www.w3.org/2000/svg" width="36" height="36" id="b"><path d="M35.885 11.833c0-5.45-4.418-9.868-9.867-9.868-3.308 0-6.227 1.633-8.018 4.129-1.791-2.496-4.71-4.129-8.017-4.129-5.45 0-9.868 4.417-9.868 9.868 0 .772.098 1.52.266 2.241C1.751 22.587 11.216 31.568 18 34.034c6.783-2.466 16.249-11.447 17.617-19.959.17-.721.268-1.469.268-2.242z" fill="#E6E7E8"/></svg></defs><g data-name="🤍"><use xlink:href="#a" transform="matrix(2.38715 0 0 2.38715 251.752 450.388)"/><use xlink:href="#a" transform="matrix(2.38715 0 0 2.38715 251.752 -49.612)"/></g><use xlink:href="#b" transform="matrix(2.38715 0 0 2.38715 98.717 161.079)" data-name="🤍"/></svg>